<svg version="1.0" xmlns="http://www.w3.org/2000/svg" id="logo" viewBox="0 0 435.000000 596.000000"
 preserveAspectRatio="xMidYMid meet">
<image src="{{ .Site.BaseURL }}/img/logo-small.png" xlink:href=""></image>
<g transform="translate(0.000000,596.000000) scale(0.100000,-0.100000)"
fill="currentColor" stroke="none">
<path d="M1967 5953 c-4 -3 -7 -361 -7 -795 l0 -788 -65 0 c-166 0 -366 -49
-520 -129 -92 -47 -207 -128 -223 -157 -5 -9 -19 -21 -32 -27 -13 -7 -28 -21
-34 -32 -6 -11 -19 -26 -29 -33 -52 -39 -152 -225 -190 -352 -40 -133 -49
-214 -61 -525 l-11 -290 -398 -3 -397 -2 0 -43 c0 -62 47 -153 121 -231 131
-140 274 -211 631 -311 l57 -16 3 -112 c2 -62 2 -114 1 -115 -1 -2 -12 8 -24
22 -12 14 -37 30 -55 36 -75 25 -129 -44 -129 -165 0 -87 19 -129 120 -261 93
-120 109 -154 134 -283 12 -56 30 -123 40 -147 21 -46 69 -84 107 -84 12 0 26
-6 31 -12 15 -19 132 -374 147 -448 14 -62 13 -66 -7 -80 -51 -37 -96 -96
-147 -191 -77 -145 -118 -205 -189 -281 -93 -99 -94 -98 124 -98 l185 0 0 109
c0 123 11 193 41 269 l22 53 19 -57 c21 -61 71 -142 94 -151 7 -3 29 -19 48
-37 44 -39 215 -125 321 -160 69 -23 95 -26 175 -24 l95 3 3 2178 c1 1197 4
2177 6 2177 2 0 50 5 107 10 116 12 232 40 329 80 77 32 225 121 257 156 12
13 26 24 31 24 13 0 143 138 179 191 81 118 137 234 172 361 27 96 46 288 36
373 l-7 68 -51 -6 c-71 -9 -129 9 -181 54 -73 65 -86 121 -60 257 l6 32 -409
0 c-225 0 -413 -3 -416 -7z"></path>
<path d="M3185 5923 c10 -47 10 -125 0 -178 -7 -40 -7 -40 46 -74 50 -32 269
-240 269 -256 0 -3 13 -25 29 -48 65 -96 131 -255 162 -392 8 -37 13 -118 13
-215 -1 -133 -5 -169 -27 -253 -30 -111 -95 -255 -157 -347 -52 -77 -176 -208
-242 -256 -73 -54 -66 -70 35 -77 162 -12 357 -83 515 -188 87 -57 224 -189
292 -280 69 -92 140 -228 175 -334 34 -101 42 -116 49 -95 4 8 5 692 4 1520
l-3 1505 -584 3 -584 2 8 -37z"></path>
<path d="M3429 2716 c-80 -23 -167 -76 -228 -141 -79 -85 -89 -126 -95 -392
-5 -227 -4 -230 61 -173 56 50 94 37 128 -43 36 -87 5 -183 -104 -317 -80 -98
-117 -175 -135 -280 -17 -100 -32 -145 -58 -183 -22 -30 -67 -57 -97 -57 -11
0 -23 -5 -26 -10 -21 -34 -138 -409 -151 -482 l-15 -87 48 -60 c26 -33 68 -99
93 -148 64 -124 107 -187 184 -270 l68 -73 624 0 624 0 0 1217 c0 1317 1 1289
-50 1113 -28 -97 -85 -217 -143 -304 -26 -38 -47 -73 -47 -78 0 -4 12 -27 28
-50 23 -36 27 -52 27 -113 0 -63 -4 -77 -29 -114 -79 -113 -226 -129 -319 -33
-72 74 -86 161 -39 247 40 73 104 110 191 110 l66 1 18 37 c9 20 22 71 28 112
24 162 -29 325 -144 439 -65 66 -113 95 -206 127 -64 22 -229 25 -302 5z"></path>
<path d="M2685 392 c-5 -4 -20 -28 -32 -53 -12 -26 -36 -63 -53 -83 -47 -53
-192 -146 -297 -191 -51 -21 -95 -45 -97 -52 -4 -10 48 -13 271 -13 l276 0 -5
142 c-4 91 -12 164 -22 201 -17 57 -22 63 -41 49z"></path>
</g>
</svg>
