<!DOCTYPE svg PUBLIC "-//W3C//DTD SVG 20010904//EN"
 "http://www.w3.org/TR/2001/REC-SVG-20010904/DTD/svg10.dtd">
<svg version="1.0" xmlns="http://www.w3.org/2000/svg"
 viewBox="0 0 232.000000 227.000000"
 preserveAspectRatio="xMidYMid meet">
<g transform="translate(0.000000,227.000000) scale(0.100000,-0.100000)"
fill="currentColor" stroke="none">
<path d="M555 2223 c-259 -55 -472 -302 -492 -570 -14 -176 73 -380 227 -532
105 -105 169 -148 370 -253 96 -50 213 -116 260 -146 159 -103 261 -231 305
-386 20 -67 22 -187 6 -230 -20 -50 -2 -42 21 10 17 38 23 73 26 158 12 301
-104 470 -563 826 -110 85 -225 180 -255 211 -164 166 -199 434 -81 618 44 69
121 138 189 169 48 22 74 27 167 30 98 4 119 1 188 -22 70 -24 101 -40 177
-93 l25 -18 -25 32 c-58 75 -196 157 -315 188 -54 14 -182 19 -230 8z"/>
<path d="M1548 2214 c-103 -24 -185 -75 -289 -176 -59 -58 -149 -167 -149
-181 0 -3 26 20 58 50 177 171 305 230 482 221 156 -8 262 -74 360 -225 120
-182 106 -395 -40 -600 -68 -97 -208 -228 -334 -313 -186 -126 -255 -202 -271
-295 l-7 -40 25 51 c39 81 85 116 279 215 209 106 300 171 420 297 131 138
178 248 178 417 0 185 -56 320 -180 439 -85 81 -146 118 -237 141 -71 18 -218
18 -295 -1z"/>
</g>
</svg>
